<svg width="240" height="96" viewBox="0 0 240 96" fill="none" xmlns="http://www.w3.org/2000/svg">
<path d="M144 48C144 35.2696 138.943 23.0606 129.941 14.0589C120.939 5.05713 108.73 9.61118e-07 96 0C83.2696 -9.61118e-07 71.0606 5.05713 62.0589 14.0589C53.0571 23.0606 48 35.2696 48 48L96 48H144Z" fill="url(#paint0_linear_2_11)"/>
<path d="M240 48C240 35.2696 234.943 23.0606 225.941 14.0589C216.939 5.05713 204.73 9.61118e-07 192 0C179.27 -9.61118e-07 167.061 5.05713 158.059 14.0589C149.057 23.0606 144 35.2696 144 48L192 48H240Z" fill="url(#paint1_linear_2_11)"/>
<path d="M0 48C-1.11293e-06 60.7304 5.05713 72.9394 14.0589 81.9411C23.0606 90.9429 35.2696 96 48 96C60.7304 96 72.9394 90.9429 81.9411 81.9411C90.9429 72.9394 96 60.7304 96 48L48 48L0 48Z" fill="url(#paint2_linear_2_11)"/>
<path d="M96 48C96 60.7304 101.057 72.9394 110.059 81.9411C119.061 90.9429 131.27 96 144 96C156.73 96 168.939 90.9429 177.941 81.9411C186.943 72.9394 192 60.7304 192 48L144 48L96 48Z" fill="url(#paint3_linear_2_11)"/>
<path d="M48 0C41.6966 -7.51679e-08 35.4548 1.24156 29.6312 3.65378C23.8076 6.06601 18.5161 9.60166 14.0589 14.0589C9.60166 18.5161 6.06601 23.8076 3.65378 29.6312C1.24156 35.4548 -2.00365e-07 41.6966 0 48C2.00365e-07 54.3035 1.24156 60.5452 3.65378 66.3688C6.06601 72.1924 9.60166 77.4839 14.0589 81.9411C18.5161 86.3983 23.8076 89.934 29.6312 92.3462C35.4548 94.7584 41.6966 96 48 96L48 48L48 0Z" fill="url(#paint4_linear_2_11)"/>
<defs>
<linearGradient id="paint0_linear_2_11" x1="144" y1="48" x2="48" y2="48" gradientUnits="userSpaceOnUse">
<stop stop-color="#D9D9D9"/>
<stop offset="1" stop-color="#737373"/>
</linearGradient>
<linearGradient id="paint1_linear_2_11" x1="240" y1="48" x2="144" y2="48" gradientUnits="userSpaceOnUse">
<stop stop-color="#D9D9D9"/>
<stop offset="1" stop-color="#737373"/>
</linearGradient>
<linearGradient id="paint2_linear_2_11" x1="96" y1="48" x2="0" y2="48" gradientUnits="userSpaceOnUse">
<stop stop-color="#D9D9D9"/>
<stop offset="1" stop-color="#737373"/>
</linearGradient>
<linearGradient id="paint3_linear_2_11" x1="192" y1="48" x2="96" y2="48" gradientUnits="userSpaceOnUse">
<stop stop-color="#D9D9D9"/>
<stop offset="1" stop-color="#737373"/>
</linearGradient>
<linearGradient id="paint4_linear_2_11" x1="48" y1="96" x2="48" y2="0" gradientUnits="userSpaceOnUse">
<stop stop-color="#D9D9D9"/>
<stop offset="1" stop-color="#737373"/>
</linearGradient>
</defs>
</svg>
